<?xml version="1.0"?>
<svg width="839.2" height="727.08" xmlns="http://www.w3.org/2000/svg" xmlns:svg="http://www.w3.org/2000/svg" _mstHash="1" _mstTextHash="19428630" data-name="Layer 1">
 <title _isTranslated="1">生日快乐</title>第
 <g _isTranslated="1" class="layer">
  <title _isTranslated="1">1</title>
  <path _isTranslated="1" d="m488.31,468c-3.94,12.79 2,27.91 13.53,34.64c4.84,2.82 10.41,4.24 15.1,7.3c10.19,6.64 14.21,19.35 17.52,31.05c3.8,13.45 7.61,27.67 4.13,41.2c-2.22,8.63 -7.27,16.26 -10.14,24.7a51.54,51.54 0 0 0 -2.45,22c0.42,3.94 1.4,8 4.1,10.94c3.9,4.2 10.18,4.83 15.82,5.84a76.78,76.78 0 0 1 55.2,42.74" fill="none" id="svg_1" stroke="#535461" stroke-miterlimit="10" stroke-width="2" transform="translate(-180.4 -86.46)"/>
  <polygon _isTranslated="1" fill="#f55f44" id="svg_2" points="324.76 390.14 298.28 390.14 302.92 374.26 318.8 374.26 324.76 390.14"/>
  <path _isTranslated="1" d="m419.12,225.16c0,60.68 -49.19,149.57 -109.86,149.57s-109.86,-88.9 -109.86,-149.57a109.86,109.86 0 0 1 219.73,0l-0.01,0z" fill="#f55f44" id="svg_3"/>
  <polygon _isTranslated="1" fill="#535461" id="svg_4" points="318.8 374.92 302.92 374.92 293.65 369.63 328.07 369.63 318.8 374.92"/>
  <path _isTranslated="1" d="m451.55,223.78s-46.33,25.15 -52.95,75.45" fill="#fff" id="svg_5" opacity="0.1" transform="translate(-180.4 -86.46)"/>层
  <text _mstHash="401" _mstTextHash="45977958" fill="#aaffff" font-family="Serif" font-size="24" id="svg_6" stroke-width="0" style="cursor: move;" text-anchor="middle" transform="rotate(-0.82788 313.2 218.333)" x="313.2" xml:space="preserve" y="227.13">卜卜生日快乐哇！！</text></g></svg>